<svg width="1240" height="919" viewBox="0 0 1240 919" fill="none" xmlns="http://www.w3.org/2000/svg">
<g opacity="0.0496111">
<path d="M620.901 -41.0342C998.474 -41.0342 1305.03 265.526 1305.03 643.099C1305.03 1020.67 998.474 1327.23 620.901 1327.23C243.328 1327.23 -63.2314 1020.67 -63.2314 643.099C-63.2314 265.526 243.328 -41.0342 620.901 -41.0342Z" fill="#D0EDA6"/>
<path d="M620.901 -41.0342C998.474 -41.0342 1305.03 265.526 1305.03 643.099C1305.03 1020.67 998.474 1327.23 620.901 1327.23C243.328 1327.23 -63.2314 1020.67 -63.2314 643.099C-63.2314 265.526 243.328 -41.0342 620.901 -41.0342Z" fill="#D0EDA6"/>
</g>
<g opacity="0.216278">
<path d="M623.931 140.721C899.521 140.721 1123.28 364.479 1123.28 640.069C1123.28 915.66 899.521 1139.42 623.931 1139.42C348.34 1139.42 124.582 915.66 124.582 640.069C124.582 364.479 348.34 140.721 623.931 140.721Z" fill="#D0EDA6"/>
<path d="M623.931 140.721C899.521 140.721 1123.28 364.479 1123.28 640.069C1123.28 915.66 899.521 1139.42 623.931 1139.42C348.34 1139.42 124.582 915.66 124.582 640.069C124.582 364.479 348.34 140.721 623.931 140.721Z" fill="#D0EDA6"/>
</g>
<g opacity="0.382944">
<path d="M626.96 322.476C800.568 322.476 941.524 463.432 941.524 637.04C941.524 810.648 800.568 951.604 626.96 951.604C453.352 951.604 312.396 810.648 312.396 637.04C312.396 463.432 453.352 322.476 626.96 322.476Z" fill="#D0EDA6"/>
<path d="M626.96 322.476C800.568 322.476 941.524 463.432 941.524 637.04C941.524 810.648 800.568 951.604 626.96 951.604C453.352 951.604 312.396 810.648 312.396 637.04C312.396 463.432 453.352 322.476 626.96 322.476Z" fill="#D0EDA6"/>
</g>
<g opacity="0.5">
<path d="M629.989 504.23C701.615 504.23 759.769 562.385 759.769 634.011C759.769 705.636 701.615 763.791 629.989 763.791C558.363 763.791 500.209 705.636 500.209 634.011C500.209 562.385 558.363 504.23 629.989 504.23Z" fill="#D0EDA6"/>
<path d="M629.989 504.23C701.615 504.23 759.769 562.385 759.769 634.011C759.769 705.636 701.615 763.791 629.989 763.791C558.363 763.791 500.209 705.636 500.209 634.011C500.209 562.385 558.363 504.23 629.989 504.23Z" fill="#D0EDA6"/>
</g>
</svg>
